<svg width="1620" height="851" viewBox="0 0 1620 851" xmlns="http://www.w3.org/2000/svg">
<path transform="translate(1288.2119 80.0554)" fill="rgb(255,255,255)" fill-rule="evenodd" d="M 52.5060 83.9140 C 52.5060 83.9140, 79.3850 83.9140, 79.3850 83.9140 C 79.3850 83.9140, 79.3850 51.0850, 79.3850 51.0850 C 79.3850 51.0850, 52.5060 51.0850, 52.5060 51.0850 C 52.5060 51.0850, 52.5060 83.9140, 52.5060 83.9140 Z M 12.8140 74.8690 C 12.8140 74.8690, 12.8140 51.0850, 12.8140 51.0850 C 12.8140 51.0850, 39.6930 51.0850, 39.6930 51.0850 C 39.6930 51.0850, 39.6930 83.9140, 39.6930 83.9140 C 39.6930 83.9140, 21.8590 83.9140, 21.8590 83.9140 C 16.8630 83.9140, 12.8140 79.8640, 12.8140 74.8690 C 12.8140 74.8690, 12.8140 74.8690, 12.8140 74.8690 Z M 12.8140 39.7790 C 12.8140 39.7790, 39.6930 39.7790, 39.6930 39.7790 C 39.6930 39.7790, 39.6930 11.3070, 39.6930 11.3070 C 39.6930 11.3070, 12.8140 11.3070, 12.8140 11.3070 C 12.8140 11.3070, 12.8140 39.7790, 12.8140 39.7790 Z M 79.3850 20.3520 C 79.3850 20.3520, 79.3850 39.7790, 79.3850 39.7790 C 79.3850 39.7790, 52.5060 39.7790, 52.5060 39.7790 C 52.5060 39.7790, 52.5060 11.3070, 52.5060 11.3070 C 52.5060 11.3070, 70.3400 11.3070, 70.3400 11.3070 C 75.3350 11.3070, 79.3850 15.3560, 79.3850 20.3520 C 79.3850 20.3520, 79.3850 20.3520, 79.3850 20.3520 Z M 74.1090 0.0000 C 74.1090 0.0000, 2.2610 0.0000, 2.2610 0.0000 C 1.0120 0.0000, 0.0000 1.0120, 0.0000 2.2610 C 0.0000 2.2610, 0.0000 77.1300, 0.0000 77.1300 C 0.0000 87.1210, 8.0990 95.2200, 18.0900 95.2200 C 18.0900 95.2200, 89.9380 95.2200, 89.9380 95.2200 C 91.1870 95.2200, 92.2000 94.2080, 92.2000 92.9590 C 92.2000 92.9590, 92.2000 18.0910, 92.2000 18.0910 C 92.2000 8.1000, 84.1000 0.0000, 74.1090 0.0000 C 74.1090 0.0000, 74.1090 0.0000, 74.1090 0.0000 Z"/>
<path transform="translate(1212.9325 75.2504)" d="M 59.7770 56.0430 C 59.7770 56.0430, 50.9930 57.2320, 50.9930 57.2320 C 50.9930 57.2320, 50.9930 0.7540, 50.9930 0.7540 C 50.9930 0.3370, 50.6550 0.0000, 50.2390 0.0000 C 50.2390 0.0000, 38.9320 0.0000, 38.9320 0.0000 C 38.5160 0.0000, 38.1780 0.3370, 38.1780 0.7540 C 38.1780 0.7540, 38.1780 58.9660, 38.1780 58.9660 C 38.1780 58.9660, 0.6520 64.0430, 0.6520 64.0430 C 0.2780 64.0940, 0.0000 64.4130, 0.0000 64.7910 C 0.0000 64.7910, 0.0000 74.6800, 0.0000 74.6800 C 0.0000 75.1360, 0.4020 75.4880, 0.8540 75.4260 C 0.8540 75.4260, 38.1780 70.3760, 38.1780 70.3760 C 38.1780 70.3760, 38.1780 99.2720, 38.1780 99.2720 C 38.1780 99.6880, 38.5160 100.0250, 38.9320 100.0250 C 38.9320 100.0250, 50.2390 100.0250, 50.2390 100.0250 C 50.6550 100.0250, 50.9930 99.6880, 50.9930 99.2720 C 50.9930 99.2720, 50.9930 68.6420, 50.9930 68.6420 C 50.9930 68.6420, 59.9790 67.4260, 59.9790 67.4260 C 60.3530 67.3750, 60.6310 67.0560, 60.6310 66.6790 C 60.6310 66.6790, 60.6310 56.7900, 60.6310 56.7900 C 60.6310 56.3340, 60.2290 55.9820, 59.7770 56.0430" fill="rgb(255,255,255)"/>
<path transform="translate(1168.2005 77.2274)" d="M 43.6955 25.5289 C 43.6955 25.5289, 30.7585 25.5289, 30.7585 25.5289 C 30.7585 25.5289, 30.7585 12.7449, 30.7585 12.7449 C 34.4175 12.3949, 37.8845 11.9609, 41.1895 11.4339 C 41.5555 11.3759, 41.8225 11.0579, 41.8225 10.6869 C 41.8225 10.6869, 41.8225 0.7519, 41.8225 0.7519 C 41.8225 0.2849, 41.4085 -0.0671, 40.9475 0.0109 C 31.5435 1.6099, 20.4215 2.4359, 7.1635 2.5199 C 6.7495 2.5219, 6.4095 2.8579, 6.4095 3.2719 C 6.4095 3.2719, 6.4095 13.0709, 6.4095 13.0709 C 6.4095 13.4889, 6.7555 13.8289, 7.1745 13.8269 C 11.2175 13.8029, 15.0495 13.7139, 18.6995 13.5599 C 18.6995 13.5599, 18.6995 25.5289, 18.6995 25.5289 C 18.6995 25.5289, 3.5385 25.5289, 3.5385 25.5289 C 3.1225 25.5289, 2.7845 25.8669, 2.7845 26.2829 C 2.7845 26.2829, 2.7845 36.0819, 2.7845 36.0819 C 2.7845 36.4979, 3.1225 36.8359, 3.5385 36.8359 C 3.5385 36.8359, 17.1615 36.8359, 17.1615 36.8359 C 14.8035 49.4039, 8.8835 64.0269, 0.1065 78.7939 C -0.1305 79.1929, 0.0435 79.7099, 0.4755 79.8799 C 0.4755 79.8799, 8.5005 83.0219, 8.5005 83.0219 C 9.5405 83.4299, 10.7295 83.0179, 11.2865 82.0489 C 14.0495 77.2369, 16.5195 72.4319, 18.6995 67.6889 C 18.6995 67.6889, 18.6995 97.2949, 18.6995 97.2949 C 18.6995 97.7109, 19.0365 98.0489, 19.4535 98.0489 C 19.4535 98.0489, 30.0055 98.0489, 30.0055 98.0489 C 30.4225 98.0489, 30.7585 97.7109, 30.7585 97.2949 C 30.7585 97.2949, 30.7585 54.3539, 30.7585 54.3539 C 30.7585 54.3539, 41.8005 59.6699, 41.8005 59.6699 C 42.3005 59.9099, 42.8815 59.5459, 42.8815 58.9899 C 42.8815 58.9899, 42.8815 48.4909, 42.8815 48.4909 C 42.8815 47.6219, 42.3835 46.8299, 41.6005 46.4539 C 41.6005 46.4539, 30.7585 41.2349, 30.7585 41.2349 C 30.7585 41.2349, 30.7585 36.8359, 30.7585 36.8359 C 30.7585 36.8359, 43.6955 36.8359, 43.6955 36.8359 C 44.1115 36.8359, 44.4485 36.4979, 44.4485 36.0819 C 44.4485 36.0819, 44.4485 26.2829, 44.4485 26.2829 C 44.4485 25.8669, 44.1115 25.5289, 43.6955 25.5289" fill="rgb(255,255,255)"/>
<path transform="translate(1052.9423 75.0703)" fill="rgb(255,255,255)" fill-rule="evenodd" d="M 31.8658 65.2280 C 31.8658 65.2280, 74.1048 65.2280, 74.1048 65.2280 C 68.5248 69.0040, 61.6538 72.4030, 53.4508 75.5050 C 44.4708 71.9960, 37.1828 68.3760, 31.8658 65.2280 M 104.9828 88.6340 C 91.7948 86.8610, 79.8238 84.1180, 69.3218 80.9640 C 78.1158 76.5720, 85.1428 71.7330, 90.4558 66.4150 C 90.4558 66.4150, 91.4468 65.4220, 91.4468 65.4220 C 91.8708 64.9980, 92.1088 64.4230, 92.1088 63.8230 C 92.1088 63.8230, 92.1088 55.4290, 92.1088 55.4290 C 92.1088 55.0130, 91.7708 54.6750, 91.3548 54.6750 C 91.3548 54.6750, 34.9828 54.6750, 34.9828 54.6750 C 36.1548 53.0030, 37.2398 51.3220, 38.2478 49.6280 C 38.2478 49.6280, 104.0198 49.6280, 104.0198 49.6280 C 104.4358 49.6280, 104.7738 49.2910, 104.7738 48.8740 C 104.7738 48.8740, 104.7738 39.8300, 104.7738 39.8300 C 104.7738 39.4140, 104.4358 39.0760, 104.0198 39.0760 C 104.0198 39.0760, 58.9828 39.0760, 58.9828 39.0760 C 58.9828 39.0760, 58.9828 32.2450, 58.9828 32.2450 C 58.9828 32.2450, 95.2988 32.2450, 95.2988 32.2450 C 95.7158 32.2450, 96.0528 31.9080, 96.0528 31.4920 C 96.0528 31.4920, 96.0528 23.2000, 96.0528 23.2000 C 96.0528 22.7840, 95.7158 22.4460, 95.2988 22.4460 C 95.2988 22.4460, 58.9828 22.4460, 58.9828 22.4460 C 58.9828 22.4460, 58.9828 15.6160, 58.9828 15.6160 C 58.9828 15.6160, 98.2508 15.6160, 98.2508 15.6160 C 98.6668 15.6160, 99.0048 15.2790, 99.0048 14.8620 C 99.0048 14.8620, 99.0048 5.8170, 99.0048 5.8170 C 99.0048 5.4010, 98.6668 5.0630, 98.2508 5.0630 C 98.2508 5.0630, 58.9828 5.0630, 58.9828 5.0630 C 58.9828 5.0630, 58.9828 0.7530, 58.9828 0.7530 C 58.9828 0.3370, 58.6448 0.0000, 58.2288 0.0000 C 58.2288 0.0000, 46.9228 0.0000, 46.9228 0.0000 C 46.5068 0.0000, 46.1688 0.3370, 46.1688 0.7530 C 46.1688 0.7530, 46.1688 5.0630, 46.1688 5.0630 C 46.1688 5.0630, 6.9008 5.0630, 6.9008 5.0630 C 6.4848 5.0630, 6.1468 5.4010, 6.1468 5.8170 C 6.1468 5.8170, 6.1468 14.8620, 6.1468 14.8620 C 6.1468 15.2790, 6.4848 15.6160, 6.9008 15.6160 C 6.9008 15.6160, 46.1688 15.6160, 46.1688 15.6160 C 46.1688 15.6160, 46.1688 22.4460, 46.1688 22.4460 C 46.1688 22.4460, 9.8528 22.4460, 9.8528 22.4460 C 9.4358 22.4460, 9.0988 22.7840, 9.0988 23.2000 C 9.0988 23.2000, 9.0988 31.4920, 9.0988 31.4920 C 9.0988 31.9080, 9.4358 32.2450, 9.8528 32.2450 C 9.8528 32.2450, 46.1688 32.2450, 46.1688 32.2450 C 46.1688 32.2450, 46.1688 39.0760, 46.1688 39.0760 C 46.1688 39.0760, 1.1318 39.0760, 1.1318 39.0760 C 0.7158 39.0760, 0.3778 39.4140, 0.3778 39.8300 C 0.3778 39.8300, 0.3778 48.8740, 0.3778 48.8740 C 0.3778 49.2910, 0.7158 49.6280, 1.1318 49.6280 C 1.1318 49.6280, 24.6658 49.6280, 24.6658 49.6280 C 19.8508 56.1180, 13.9358 62.5460, 5.8578 69.5680 C 5.5118 69.8690, 5.5078 70.4080, 5.8528 70.7080 C 5.8528 70.7080, 13.2148 77.0890, 13.2148 77.0890 C 13.4998 77.3370, 13.9298 77.3330, 14.2138 77.0820 C 16.4138 75.1390, 18.4928 73.2240, 20.4568 71.3270 C 24.9058 74.4740, 30.5828 77.7370, 36.9838 80.8560 C 26.4408 83.8250, 14.3418 86.5110, 0.6228 89.0130 C 0.1158 89.1050, -0.1552 89.6670, 0.0938 90.1180 C 0.0938 90.1180, 4.8698 98.7680, 4.8698 98.7680 C 5.3448 99.6250, 6.3228 100.0820, 7.2838 99.8960 C 25.1928 96.4440, 40.4498 92.4310, 53.1788 87.8140 C 67.8448 93.3590, 83.8248 97.5220, 99.7218 99.9400 C 100.7708 100.0990, 101.7878 99.5010, 102.1698 98.5120 C 102.1698 98.5120, 105.5898 89.6480, 105.5898 89.6480 C 105.7638 89.1950, 105.4658 88.6990, 104.9828 88.6340"/>
<path transform="translate(1217.9831 81.8188)" d="M 0.7020 11.3291 C 8.3220 11.7871, 16.8660 12.8751, 26.5110 14.6181 C 26.9730 14.7011, 27.4030 14.3481, 27.4030 13.8781 C 27.4030 13.8781, 27.4030 3.9161, 27.4030 3.9161 C 27.4030 3.5501, 27.1350 3.2351, 26.7740 3.1721 C 17.0660 1.4661, 8.5530 0.4301, 0.7920 0.0011 C 0.3600 -0.0219, 0.0000 0.3251, 0.0000 0.7571 C 0.0000 0.7571, 0.0000 10.5801, 0.0000 10.5801 C 0.0000 10.9781, 0.3050 11.3051, 0.7020 11.3291" fill="rgb(255,255,255)"/>
<path transform="translate(1217.9831 107.2962)" d="M 0.7020 11.3292 C 8.3220 11.7872, 16.8660 12.8752, 26.5110 14.6172 C 26.9730 14.7012, 27.4030 14.3482, 27.4030 13.8782 C 27.4030 13.8782, 27.4030 3.9162, 27.4030 3.9162 C 27.4030 3.5502, 27.1350 3.2352, 26.7740 3.1712 C 17.0660 1.4662, 8.5530 0.4302, 0.7920 0.0012 C 0.3600 -0.0228, 0.0000 0.3242, 0.0000 0.7572 C 0.0000 0.7572, 0.0000 10.5802, 0.0000 10.5802 C 0.0000 10.9782, 0.3050 11.3052, 0.7020 11.3292" fill="rgb(255,255,255)"/>
<path transform="translate(202.0063 64.0004)" d="M 77.8970 0.0000 C 77.8970 0.0000, 0.0000 111.2490, 0.0000 111.2490 C 0.0000 111.2490, 21.2410 111.2490, 21.2410 111.2490 C 21.2410 111.2490, 77.8970 30.3360, 77.8970 30.3360 C 77.8970 30.3360, 77.8970 111.2490, 77.8970 111.2490 C 77.8970 111.2490, 95.2970 111.2490, 95.2970 111.2490 C 95.2970 111.2490, 95.2970 5.4850, 95.2970 5.4850 C 95.2970 5.4850, 95.2970 0.0000, 95.2970 0.0000 C 95.2970 0.0000, 77.8970 0.0000, 77.8970 0.0000 Z" fill="rgb(255,255,255)"/>
<path transform="translate(141.7510 64.0004)" d="M 77.8970 0.0000 C 77.8970 0.0000, 0.0000 111.2490, 0.0000 111.2490 C 0.0000 111.2490, 21.2410 111.2490, 21.2410 111.2490 C 21.2410 111.2490, 77.8970 30.3360, 77.8970 30.3360 C 77.8970 30.3360, 77.8970 61.3740, 77.8970 61.3740 C 77.8970 61.3740, 95.2970 61.3740, 95.2970 61.3740 C 95.2970 61.3740, 95.2970 5.4850, 95.2970 5.4850 C 95.2970 5.4850, 95.2970 0.0000, 95.2970 0.0000 C 95.2970 0.0000, 77.8970 0.0000, 77.8970 0.0000 Z" fill="rgb(255,255,255)"/>
<path transform="translate(395.0576 64.0000)" fill="rgb(255,255,255)" fill-rule="evenodd" d="M 42.0000 95.5190 C 28.2150 95.5190, 17.0000 84.0800, 17.0000 70.0190 C 17.0000 55.9580, 28.2150 44.5190, 42.0000 44.5190 C 55.7850 44.5190, 67.0000 55.9580, 67.0000 70.0190 C 67.0000 84.0800, 55.7850 95.5190, 42.0000 95.5190 C 42.0000 95.5190, 42.0000 95.5190, 42.0000 95.5190 Z M 68.1330 0.0000 C 68.1330 0.0000, 68.1330 39.2060, 68.1330 39.2060 C 61.4200 31.9720, 52.0470 27.5190, 40.8660 27.5190 C 17.7070 27.5190, 0.0000 46.5840, 0.0000 70.0190 C 0.0000 93.4540, 17.7070 112.5190, 40.8660 112.5190 C 52.0470 112.5190, 61.4200 108.0660, 68.1330 100.8330 C 68.1330 100.8330, 68.1330 111.2490, 68.1330 111.2490 C 68.1330 111.2490, 85.1330 111.2490, 85.1330 111.2490 C 85.1330 111.2490, 85.1330 0.0000, 85.1330 0.0000 C 85.1330 0.0000, 68.1330 0.0000, 68.1330 0.0000 Z"/>
<path transform="translate(671.9476 91.5190)" fill="rgb(255,255,255)" fill-rule="evenodd" d="M 43.1340 68.0000 C 29.3490 68.0000, 18.1340 56.5610, 18.1340 42.5000 C 18.1340 28.4390, 29.3490 17.0000, 43.1340 17.0000 C 56.9190 17.0000, 68.1340 28.4390, 68.1340 42.5000 C 68.1340 56.5610, 56.9190 68.0000, 43.1340 68.0000 M 44.2680 0.0000 C 33.0870 0.0000, 23.7140 4.4530, 17.0000 11.6870 C 17.0000 11.6870, 17.0000 1.2700, 17.0000 1.2700 C 17.0000 1.2700, 0.0000 1.2700, 0.0000 1.2700 C 0.0000 1.2700, 0.0000 124.4470, 0.0000 124.4470 C 0.0000 124.4470, 17.0000 124.4470, 17.0000 124.4470 C 17.0000 124.4470, 17.0000 73.3130, 17.0000 73.3130 C 23.7140 80.5470, 33.0870 85.0000, 44.2680 85.0000 C 67.4260 85.0000, 85.1340 65.9350, 85.1340 42.5000 C 85.1340 19.0650, 67.4260 0.0000, 44.2680 0.0000"/>
<path transform="translate(487.1992 91.5190)" d="M 42.0000 68.0000 C 28.2150 68.0000, 17.0000 56.5610, 17.0000 42.5000 C 17.0000 28.4390, 28.2150 17.0000, 42.0000 17.0000 C 52.1780 17.0000, 60.9480 23.2390, 64.8450 32.1610 C 64.8450 32.1610, 80.2670 25.0190, 80.2670 25.0190 C 73.6660 10.2820, 59.0020 0.0000, 42.0000 0.0000 C 18.8410 0.0000, 0.0000 19.0650, 0.0000 42.5000 C 0.0000 65.9350, 18.8410 85.0000, 42.0000 85.0000 C 58.8480 85.0000, 73.4030 74.9040, 80.0880 60.3810 C 80.0880 60.3810, 64.6670 53.2390, 64.6670 53.2390 C 60.6860 61.9470, 52.0250 68.0000, 42.0000 68.0000" fill="rgb(255,255,255)"/>
<path transform="translate(942.2164 91.5190)" d="M 41.2880 0.0000 C 30.6840 0.0000, 22.4750 4.5040, 17.0000 11.7110 C 17.0000 11.7110, 17.0000 1.2700, 17.0000 1.2700 C 17.0000 1.2700, 0.0000 1.2700, 0.0000 1.2700 C 0.0000 1.2700, 0.0000 83.7570, 0.0000 83.7570 C 0.0000 83.7570, 17.0000 83.7570, 17.0000 83.7570 C 17.0000 83.7570, 17.0000 37.7500, 17.0000 37.7500 C 17.0000 26.3090, 27.0100 17.0000, 39.0200 17.0000 C 50.2250 17.0000, 59.3400 26.3090, 59.3400 37.7500 C 59.3400 37.7500, 59.3400 83.7570, 59.3400 83.7570 C 59.3400 83.7570, 76.3400 83.7570, 76.3400 83.7570 C 76.3400 83.7570, 76.3400 37.7500, 76.3400 37.7500 C 76.3400 16.9350, 61.8660 0.0000, 41.2880 0.0000" fill="rgb(255,255,255)"/>
<path transform="translate(304.1926 91.5190)" fill="rgb(255,255,255)" fill-rule="evenodd" d="M 18.4500 34.0000 C 21.9300 24.1070, 31.3000 17.0000, 42.2890 17.0000 C 53.2430 17.0000, 62.3160 24.0030, 65.6380 34.0000 C 65.6380 34.0000, 18.4500 34.0000, 18.4500 34.0000 Z M 83.4980 49.0000 C 83.8270 46.8620, 84.0000 44.6930, 84.0000 42.5000 C 84.0000 39.5810, 83.7210 36.7400, 83.1960 34.0000 C 79.4310 14.3760, 62.8130 0.0000, 42.2890 0.0000 C 18.9710 0.0000, 0.0000 19.0650, 0.0000 42.5000 C 0.0000 65.9350, 18.9710 85.0000, 42.2890 85.0000 C 57.4690 85.0000, 71.6390 76.9780, 79.2690 64.0620 C 79.2690 64.0620, 64.6320 55.4160, 64.6320 55.4160 C 60.0460 63.1780, 51.4850 68.0000, 42.2890 68.0000 C 30.5720 68.0000, 20.6940 59.9220, 17.8360 49.0000 C 17.8360 49.0000, 66.1580 49.0000, 66.1580 49.0000 C 66.1580 49.0000, 83.4980 49.0000, 83.4980 49.0000 Z"/>
<path transform="translate(760.7883 75.0675)" d="M 49.0550 32.7210 C 49.0550 32.7210, 49.0550 17.7210, 49.0550 17.7210 C 49.0550 17.7210, 25.5160 17.7210, 25.5160 17.7210 C 25.5160 17.7210, 25.5160 0.0000, 25.5160 0.0000 C 25.5160 0.0000, 8.5160 0.0000, 8.5160 0.0000 C 8.5160 0.0000, 8.5160 17.7210, 8.5160 17.7210 C 8.5160 17.7210, 0.0000 17.7210, 0.0000 17.7210 C 0.0000 17.7210, 0.0000 32.7210, 0.0000 32.7210 C 0.0000 32.7210, 8.5160 32.7210, 8.5160 32.7210 C 8.5160 32.7210, 8.5160 71.3670, 8.5160 71.3670 C 8.5160 82.4810, 12.0380 90.8070, 18.9870 96.1160 C 24.0840 100.0100, 30.5650 101.9520, 38.5750 101.9510 C 41.8120 101.9510, 45.3090 101.6220, 49.0550 100.9890 C 49.0550 100.9890, 49.0550 83.6860, 49.0550 83.6860 C 36.7210 86.2980, 31.4270 84.2270, 29.3080 82.6080 C 26.7910 80.6850, 25.5160 76.9030, 25.5160 71.3670 C 25.5160 71.3670, 25.5160 32.7210, 25.5160 32.7210 C 25.5160 32.7210, 49.0550 32.7210, 49.0550 32.7210 Z" fill="rgb(255,255,255)"/>
<path transform="translate(574.5528 91.5190)" fill="rgb(255,255,255)" fill-rule="evenodd" d="M 42.0000 68.0000 C 28.2150 68.0000, 17.0000 56.5610, 17.0000 42.5000 C 17.0000 28.4390, 28.2150 17.0000, 42.0000 17.0000 C 55.7850 17.0000, 67.0000 28.4390, 67.0000 42.5000 C 67.0000 56.5610, 55.7850 68.0000, 42.0000 68.0000 C 42.0000 68.0000, 42.0000 68.0000, 42.0000 68.0000 Z M 68.1340 1.7260 C 68.1340 1.7260, 68.1340 11.6870, 68.1340 11.6870 C 61.4200 4.4530, 52.0470 0.0000, 40.8660 0.0000 C 17.7080 0.0000, 0.0000 19.0650, 0.0000 42.5000 C 0.0000 65.9350, 17.7080 85.0000, 40.8660 85.0000 C 52.0470 85.0000, 61.4200 80.5470, 68.1340 73.3130 C 68.1340 73.3130, 68.1340 83.7300, 68.1340 83.7300 C 68.1340 83.7300, 85.1340 83.7300, 85.1340 83.7300 C 85.1340 83.7300, 85.1340 1.7260, 85.1340 1.7260 C 85.1340 1.7260, 68.1340 1.7260, 68.1340 1.7260 Z"/>
<path transform="translate(815.5562 91.5190)" fill="rgb(255,255,255)" fill-rule="evenodd" d="M 42.0000 68.0000 C 28.2150 68.0000, 17.0000 56.5610, 17.0000 42.5000 C 17.0000 28.4390, 28.2150 17.0000, 42.0000 17.0000 C 55.7850 17.0000, 67.0000 28.4390, 67.0000 42.5000 C 67.0000 56.5610, 55.7850 68.0000, 42.0000 68.0000 C 42.0000 68.0000, 42.0000 68.0000, 42.0000 68.0000 Z M 68.1340 1.7260 C 68.1340 1.7260, 68.1340 11.6870, 68.1340 11.6870 C 61.4210 4.4530, 52.0470 0.0000, 40.8660 0.0000 C 17.7080 0.0000, 0.0000 19.0650, 0.0000 42.5000 C 0.0000 65.9350, 17.7080 85.0000, 40.8660 85.0000 C 52.0470 85.0000, 61.4210 80.5470, 68.1340 73.3130 C 68.1340 73.3130, 68.1340 83.7300, 68.1340 83.7300 C 68.1340 83.7300, 85.1340 83.7300, 85.1340 83.7300 C 85.1340 83.7300, 85.1340 1.7260, 85.1340 1.7260 C 85.1340 1.7260, 68.1340 1.7260, 68.1340 1.7260 Z"/>
<path transform="translate(120.0000 183.7494)" d="M 0.0000 0.0000 C 0.0000 0.0000, 0.0000 5.5160, 0.0000 5.5160 C 0.0000 5.5160, 73.3060 25.1580, 73.3060 25.1580 C 73.3060 25.1580, 73.3060 0.0000, 73.3060 0.0000 C 73.3060 0.0000, 0.0000 0.0000, 0.0000 0.0000 Z" fill="rgb(115,68,227)"/>
<path transform="translate(202.0057 183.7494)" d="M 95.2980 0.0000 C 95.2980 0.0000, 0.0000 0.0000, 0.0000 0.0000 C 0.0000 0.0000, 0.0000 6.6820, 0.0000 6.6820 C 0.0000 6.6820, 95.2980 32.2160, 95.2980 32.2160 C 95.2980 32.2160, 95.2980 0.0000, 95.2980 0.0000 Z" fill="rgb(115,68,227)"/>
<path transform="translate(912.9514 75.0704)" d="M 1.9310 18.2020 C 1.9310 18.2020, 1.9310 17.1100, 1.9310 17.1100 C 1.9310 17.1100, 17.0000 8.4100, 17.0000 8.4100 C 17.0000 8.4100, 17.0000 0.0000, 17.0000 0.0000 C 17.0000 0.0000, 0.0000 0.0000, 0.0000 0.0000 C 0.0000 0.0000, 0.0000 18.2020, 0.0000 18.2020 C 0.0000 18.2020, 0.0030 18.2020, 0.0030 18.2020 C 0.0030 18.2020, 0.0030 100.2050, 0.0030 100.2050 C 0.0030 100.2050, 17.0030 100.2050, 17.0030 100.2050 C 17.0030 100.2050, 17.0030 18.2020, 17.0030 18.2020 C 17.0030 18.2020, 1.9310 18.2020, 1.9310 18.2020 Z" fill="rgb(255,255,255)"/>
<path transform="translate(202.0063 508.0008)" d="M 77.8970 0.0000 C 77.8970 0.0000, 0.0000 111.2490, 0.0000 111.2490 C 0.0000 111.2490, 21.2410 111.2490, 21.2410 111.2490 C 21.2410 111.2490, 77.8970 30.3360, 77.8970 30.3360 C 77.8970 30.3360, 77.8970 111.2490, 77.8970 111.2490 C 77.8970 111.2490, 95.2970 111.2490, 95.2970 111.2490 C 95.2970 111.2490, 95.2970 5.4850, 95.2970 5.4850 C 95.2970 5.4850, 95.2970 0.0000, 95.2970 0.0000 C 95.2970 0.0000, 77.8970 0.0000, 77.8970 0.0000 Z" fill="rgb(255,255,255)"/>
<path transform="translate(141.7510 508.0008)" d="M 77.8970 0.0000 C 77.8970 0.0000, 0.0000 111.2490, 0.0000 111.2490 C 0.0000 111.2490, 21.2410 111.2490, 21.2410 111.2490 C 21.2410 111.2490, 77.8970 30.3360, 77.8970 30.3360 C 77.8970 30.3360, 77.8970 61.3740, 77.8970 61.3740 C 77.8970 61.3740, 95.2970 61.3740, 95.2970 61.3740 C 95.2970 61.3740, 95.2970 5.4850, 95.2970 5.4850 C 95.2970 5.4850, 95.2970 0.0000, 95.2970 0.0000 C 95.2970 0.0000, 77.8970 0.0000, 77.8970 0.0000 Z" fill="rgb(255,255,255)"/>
<path transform="translate(395.0576 508.0004)" fill="rgb(255,255,255)" fill-rule="evenodd" d="M 42.0000 95.5190 C 28.2150 95.5190, 17.0000 84.0800, 17.0000 70.0190 C 17.0000 55.9580, 28.2150 44.5190, 42.0000 44.5190 C 55.7850 44.5190, 67.0000 55.9580, 67.0000 70.0190 C 67.0000 84.0800, 55.7850 95.5190, 42.0000 95.5190 C 42.0000 95.5190, 42.0000 95.5190, 42.0000 95.5190 Z M 68.1330 0.0000 C 68.1330 0.0000, 68.1330 39.2060, 68.1330 39.2060 C 61.4200 31.9720, 52.0470 27.5190, 40.8660 27.5190 C 17.7070 27.5190, 0.0000 46.5840, 0.0000 70.0190 C 0.0000 93.4540, 17.7070 112.5190, 40.8660 112.5190 C 52.0470 112.5190, 61.4200 108.0670, 68.1330 100.8330 C 68.1330 100.8330, 68.1330 111.2490, 68.1330 111.2490 C 68.1330 111.2490, 85.1330 111.2490, 85.1330 111.2490 C 85.1330 111.2490, 85.1330 0.0000, 85.1330 0.0000 C 85.1330 0.0000, 68.1330 0.0000, 68.1330 0.0000 Z"/>
<path transform="translate(671.9476 535.5194)" fill="rgb(255,255,255)" fill-rule="evenodd" d="M 43.1340 68.0000 C 29.3490 68.0000, 18.1340 56.5610, 18.1340 42.5000 C 18.1340 28.4390, 29.3490 17.0000, 43.1340 17.0000 C 56.9190 17.0000, 68.1340 28.4390, 68.1340 42.5000 C 68.1340 56.5610, 56.9190 68.0000, 43.1340 68.0000 M 44.2680 0.0000 C 33.0870 0.0000, 23.7140 4.4530, 17.0000 11.6870 C 17.0000 11.6870, 17.0000 1.2700, 17.0000 1.2700 C 17.0000 1.2700, 0.0000 1.2700, 0.0000 1.2700 C 0.0000 1.2700, 0.0000 124.4470, 0.0000 124.4470 C 0.0000 124.4470, 17.0000 124.4470, 17.0000 124.4470 C 17.0000 124.4470, 17.0000 73.3130, 17.0000 73.3130 C 23.7140 80.5480, 33.0870 85.0000, 44.2680 85.0000 C 67.4260 85.0000, 85.1340 65.9350, 85.1340 42.5000 C 85.1340 19.0650, 67.4260 0.0000, 44.2680 0.0000"/>
<path transform="translate(487.1992 535.5194)" d="M 42.0000 68.0000 C 28.2150 68.0000, 17.0000 56.5610, 17.0000 42.5000 C 17.0000 28.4390, 28.2150 17.0000, 42.0000 17.0000 C 52.1780 17.0000, 60.9480 23.2390, 64.8450 32.1610 C 64.8450 32.1610, 80.2670 25.0190, 80.2670 25.0190 C 73.6660 10.2820, 59.0020 0.0000, 42.0000 0.0000 C 18.8410 0.0000, 0.0000 19.0650, 0.0000 42.5000 C 0.0000 65.9350, 18.8410 85.0000, 42.0000 85.0000 C 58.8480 85.0000, 73.4030 74.9040, 80.0880 60.3820 C 80.0880 60.3820, 64.6670 53.2390, 64.6670 53.2390 C 60.6860 61.9470, 52.0250 68.0000, 42.0000 68.0000" fill="rgb(255,255,255)"/>
<path transform="translate(942.2164 535.5194)" d="M 41.2880 0.0000 C 30.6840 0.0000, 22.4750 4.5040, 17.0000 11.7110 C 17.0000 11.7110, 17.0000 1.2700, 17.0000 1.2700 C 17.0000 1.2700, 0.0000 1.2700, 0.0000 1.2700 C 0.0000 1.2700, 0.0000 83.7570, 0.0000 83.7570 C 0.0000 83.7570, 17.0000 83.7570, 17.0000 83.7570 C 17.0000 83.7570, 17.0000 37.7500, 17.0000 37.7500 C 17.0000 26.3090, 27.0100 17.0000, 39.0200 17.0000 C 50.2250 17.0000, 59.3400 26.3090, 59.3400 37.7500 C 59.3400 37.7500, 59.3400 83.7570, 59.3400 83.7570 C 59.3400 83.7570, 76.3400 83.7570, 76.3400 83.7570 C 76.3400 83.7570, 76.3400 37.7500, 76.3400 37.7500 C 76.3400 16.9350, 61.8660 0.0000, 41.2880 0.0000" fill="rgb(255,255,255)"/>
<path transform="translate(304.1926 535.5194)" fill="rgb(255,255,255)" fill-rule="evenodd" d="M 18.4500 34.0000 C 21.9300 24.1070, 31.3000 17.0000, 42.2890 17.0000 C 53.2430 17.0000, 62.3160 24.0030, 65.6380 34.0000 C 65.6380 34.0000, 18.4500 34.0000, 18.4500 34.0000 Z M 83.4980 49.0000 C 83.8270 46.8620, 84.0000 44.6930, 84.0000 42.5000 C 84.0000 39.5810, 83.7210 36.7400, 83.1960 34.0000 C 79.4310 14.3760, 62.8130 0.0000, 42.2890 0.0000 C 18.9710 0.0000, 0.0000 19.0650, 0.0000 42.5000 C 0.0000 65.9350, 18.9710 85.0000, 42.2890 85.0000 C 57.4690 85.0000, 71.6390 76.9780, 79.2690 64.0620 C 79.2690 64.0620, 64.6320 55.4160, 64.6320 55.4160 C 60.0460 63.1780, 51.4850 68.0000, 42.2890 68.0000 C 30.5720 68.0000, 20.6940 59.9230, 17.8360 49.0000 C 17.8360 49.0000, 66.1580 49.0000, 66.1580 49.0000 C 66.1580 49.0000, 83.4980 49.0000, 83.4980 49.0000 Z"/>
<path transform="translate(760.7883 519.0679)" d="M 49.0550 32.7210 C 49.0550 32.7210, 49.0550 17.7210, 49.0550 17.7210 C 49.0550 17.7210, 25.5160 17.7210, 25.5160 17.7210 C 25.5160 17.7210, 25.5160 0.0000, 25.5160 0.0000 C 25.5160 0.0000, 8.5160 0.0000, 8.5160 0.0000 C 8.5160 0.0000, 8.5160 17.7210, 8.5160 17.7210 C 8.5160 17.7210, 0.0000 17.7210, 0.0000 17.7210 C 0.0000 17.7210, 0.0000 32.7210, 0.0000 32.7210 C 0.0000 32.7210, 8.5160 32.7210, 8.5160 32.7210 C 8.5160 32.7210, 8.5160 71.3670, 8.5160 71.3670 C 8.5160 82.4810, 12.0380 90.8070, 18.9870 96.1160 C 24.0840 100.0100, 30.5650 101.9520, 38.5750 101.9510 C 41.8120 101.9510, 45.3090 101.6220, 49.0550 100.9890 C 49.0550 100.9890, 49.0550 83.6860, 49.0550 83.6860 C 36.7210 86.2980, 31.4270 84.2270, 29.3080 82.6080 C 26.7910 80.6850, 25.5160 76.9030, 25.5160 71.3670 C 25.5160 71.3670, 25.5160 32.7210, 25.5160 32.7210 C 25.5160 32.7210, 49.0550 32.7210, 49.0550 32.7210 Z" fill="rgb(255,255,255)"/>
<path transform="translate(574.5528 535.5194)" fill="rgb(255,255,255)" fill-rule="evenodd" d="M 42.0000 68.0000 C 28.2150 68.0000, 17.0000 56.5610, 17.0000 42.5000 C 17.0000 28.4390, 28.2150 17.0000, 42.0000 17.0000 C 55.7850 17.0000, 67.0000 28.4390, 67.0000 42.5000 C 67.0000 56.5610, 55.7850 68.0000, 42.0000 68.0000 C 42.0000 68.0000, 42.0000 68.0000, 42.0000 68.0000 Z M 68.1340 1.7260 C 68.1340 1.7260, 68.1340 11.6870, 68.1340 11.6870 C 61.4200 4.4530, 52.0470 0.0000, 40.8660 0.0000 C 17.7080 0.0000, 0.0000 19.0650, 0.0000 42.5000 C 0.0000 65.9350, 17.7080 85.0000, 40.8660 85.0000 C 52.0470 85.0000, 61.4200 80.5480, 68.1340 73.3130 C 68.1340 73.3130, 68.1340 83.7300, 68.1340 83.7300 C 68.1340 83.7300, 85.1340 83.7300, 85.1340 83.7300 C 85.1340 83.7300, 85.1340 1.7260, 85.1340 1.7260 C 85.1340 1.7260, 68.1340 1.7260, 68.1340 1.7260 Z"/>
<path transform="translate(815.5562 535.5194)" fill="rgb(255,255,255)" fill-rule="evenodd" d="M 42.0000 68.0000 C 28.2150 68.0000, 17.0000 56.5610, 17.0000 42.5000 C 17.0000 28.4390, 28.2150 17.0000, 42.0000 17.0000 C 55.7850 17.0000, 67.0000 28.4390, 67.0000 42.5000 C 67.0000 56.5610, 55.7850 68.0000, 42.0000 68.0000 C 42.0000 68.0000, 42.0000 68.0000, 42.0000 68.0000 Z M 68.1340 1.7260 C 68.1340 1.7260, 68.1340 11.6870, 68.1340 11.6870 C 61.4210 4.4530, 52.0470 0.0000, 40.8660 0.0000 C 17.7080 0.0000, 0.0000 19.0650, 0.0000 42.5000 C 0.0000 65.9350, 17.7080 85.0000, 40.8660 85.0000 C 52.0470 85.0000, 61.4210 80.5480, 68.1340 73.3130 C 68.1340 73.3130, 68.1340 83.7300, 68.1340 83.7300 C 68.1340 83.7300, 85.1340 83.7300, 85.1340 83.7300 C 85.1340 83.7300, 85.1340 1.7260, 85.1340 1.7260 C 85.1340 1.7260, 68.1340 1.7260, 68.1340 1.7260 Z"/>
<path transform="translate(120.0000 627.7498)" d="M 0.0000 0.0000 C 0.0000 0.0000, 0.0000 5.5170, 0.0000 5.5170 C 0.0000 5.5170, 73.3060 25.1580, 73.3060 25.1580 C 73.3060 25.1580, 73.3060 0.0000, 73.3060 0.0000 C 73.3060 0.0000, 0.0000 0.0000, 0.0000 0.0000 Z" fill="rgb(115,68,227)"/>
<path transform="translate(202.0057 627.7498)" d="M 95.2980 0.0000 C 95.2980 0.0000, 0.0000 0.0000, 0.0000 0.0000 C 0.0000 0.0000, 0.0000 6.6820, 0.0000 6.6820 C 0.0000 6.6820, 95.2980 32.2170, 95.2980 32.2170 C 95.2980 32.2170, 95.2980 0.0000, 95.2980 0.0000 Z" fill="rgb(115,68,227)"/>
<path transform="translate(912.9514 519.0713)" d="M 1.9310 18.2020 C 1.9310 18.2020, 1.9310 17.1100, 1.9310 17.1100 C 1.9310 17.1100, 17.0000 8.4100, 17.0000 8.4100 C 17.0000 8.4100, 17.0000 0.0000, 17.0000 0.0000 C 17.0000 0.0000, 0.0000 0.0000, 0.0000 0.0000 C 0.0000 0.0000, 0.0000 18.2020, 0.0000 18.2020 C 0.0000 18.2020, 0.0030 18.2020, 0.0030 18.2020 C 0.0030 18.2020, 0.0030 100.2050, 0.0030 100.2050 C 0.0030 100.2050, 17.0030 100.2050, 17.0030 100.2050 C 17.0030 100.2050, 17.0030 18.2020, 17.0030 18.2020 C 17.0030 18.2020, 1.9310 18.2020, 1.9310 18.2020 Z" fill="rgb(255,255,255)"/>
<path transform="translate(941.4919 664.1335)" fill="rgb(255,255,255)" fill-rule="evenodd" d="M 43.8880 70.1390 C 43.8880 70.1390, 66.3550 70.1390, 66.3550 70.1390 C 66.3550 70.1390, 66.3550 42.6990, 66.3550 42.6990 C 66.3550 42.6990, 43.8880 42.6990, 43.8880 42.6990 C 43.8880 42.6990, 43.8880 70.1390, 43.8880 70.1390 Z M 10.7110 62.5790 C 10.7110 62.5790, 10.7110 42.6990, 10.7110 42.6990 C 10.7110 42.6990, 33.1770 42.6990, 33.1770 42.6990 C 33.1770 42.6990, 33.1770 70.1400, 33.1770 70.1400 C 33.1770 70.1400, 18.2700 70.1400, 18.2700 70.1400 C 14.0960 70.1400, 10.7110 66.7550, 10.7110 62.5790 C 10.7110 62.5790, 10.7110 62.5790, 10.7110 62.5790 Z M 10.7110 33.2490 C 10.7110 33.2490, 33.1770 33.2490, 33.1770 33.2490 C 33.1770 33.2490, 33.1770 9.4500, 33.1770 9.4500 C 33.1770 9.4500, 10.7110 9.4500, 10.7110 9.4500 C 10.7110 9.4500, 10.7110 33.2490, 10.7110 33.2490 Z M 66.3540 17.0110 C 66.3540 17.0110, 66.3540 33.2490, 66.3540 33.2490 C 66.3540 33.2490, 43.8880 33.2490, 43.8880 33.2490 C 43.8880 33.2490, 43.8880 9.4500, 43.8880 9.4500 C 43.8880 9.4500, 58.7940 9.4500, 58.7940 9.4500 C 62.9700 9.4500, 66.3540 12.8360, 66.3540 17.0110 C 66.3540 17.0110, 66.3540 17.0110, 66.3540 17.0110 Z M 61.9440 0.0000 C 61.9440 0.0000, 1.8890 0.0000, 1.8890 0.0000 C 0.8470 0.0000, 0.0000 0.8460, 0.0000 1.8910 C 0.0000 1.8910, 0.0000 64.4690, 0.0000 64.4690 C 0.0000 72.8200, 6.7690 79.5900, 15.1210 79.5900 C 15.1210 79.5900, 75.1750 79.5900, 75.1750 79.5900 C 76.2190 79.5900, 77.0640 78.7430, 77.0640 77.6990 C 77.0640 77.6990, 77.0640 15.1210, 77.0640 15.1210 C 77.0640 6.7700, 70.2950 0.0000, 61.9440 0.0000 C 61.9440 0.0000, 61.9440 0.0000, 61.9440 0.0000 Z"/>
<path transform="translate(878.5687 660.1168)" d="M 49.9660 46.8440 C 49.9660 46.8440, 42.6230 47.8370, 42.6230 47.8370 C 42.6230 47.8370, 42.6230 0.6300, 42.6230 0.6300 C 42.6230 0.2820, 42.3410 0.0000, 41.9930 0.0000 C 41.9930 0.0000, 32.5420 0.0000, 32.5420 0.0000 C 32.1950 0.0000, 31.9120 0.2820, 31.9120 0.6300 C 31.9120 0.6300, 31.9120 49.2870, 31.9120 49.2870 C 31.9120 49.2870, 0.5460 53.5310, 0.5460 53.5310 C 0.2340 53.5730, 0.0000 53.8400, 0.0000 54.1560 C 0.0000 54.1560, 0.0000 62.4210, 0.0000 62.4210 C 0.0000 62.8030, 0.3370 63.0970, 0.7150 63.0450 C 0.7150 63.0450, 31.9120 58.8240, 31.9120 58.8240 C 31.9120 58.8240, 31.9120 82.9770, 31.9120 82.9770 C 31.9120 83.3240, 32.1950 83.6070, 32.5420 83.6070 C 32.5420 83.6070, 41.9930 83.6070, 41.9930 83.6070 C 42.3410 83.6070, 42.6230 83.3240, 42.6230 82.9770 C 42.6230 82.9770, 42.6230 57.3750, 42.6230 57.3750 C 42.6230 57.3750, 50.1350 56.3590, 50.1350 56.3590 C 50.4470 56.3160, 50.6800 56.0490, 50.6800 55.7340 C 50.6800 55.7340, 50.6800 47.4680, 50.6800 47.4680 C 50.6800 47.0870, 50.3440 46.7930, 49.9660 46.8440" fill="rgb(255,255,255)"/>
<path transform="translate(841.1802 661.7699)" d="M 36.5225 21.3383 C 36.5225 21.3383, 25.7105 21.3383, 25.7105 21.3383 C 25.7105 21.3383, 25.7105 10.6523, 25.7105 10.6523 C 28.7675 10.3593, 31.6665 9.9963, 34.4285 9.5573 C 34.7345 9.5083, 34.9575 9.2423, 34.9575 8.9333 C 34.9575 8.9333, 34.9575 0.6283, 34.9575 0.6283 C 34.9575 0.2383, 34.6115 -0.0567, 34.2265 0.0093 C 26.3665 1.3453, 17.0695 2.0353, 5.9875 2.1063 C 5.6415 2.1083, 5.3575 2.3883, 5.3575 2.7343 C 5.3575 2.7343, 5.3575 10.9253, 5.3575 10.9253 C 5.3575 11.2753, 5.6465 11.5593, 5.9965 11.5573 C 9.3765 11.5363, 12.5795 11.4623, 15.6295 11.3333 C 15.6295 11.3333, 15.6295 21.3383, 15.6295 21.3383 C 15.6295 21.3383, 2.9585 21.3383, 2.9585 21.3383 C 2.6095 21.3383, 2.3285 21.6203, 2.3285 21.9683 C 2.3285 21.9683, 2.3285 30.1583, 2.3285 30.1583 C 2.3285 30.5063, 2.6095 30.7883, 2.9585 30.7883 C 2.9585 30.7883, 14.3445 30.7883, 14.3445 30.7883 C 12.3745 41.2933, 7.4265 53.5173, 0.0895 65.8593 C -0.1095 66.1923, 0.0365 66.6253, 0.3985 66.7673 C 0.3985 66.7673, 7.1045 69.3943, 7.1045 69.3943 C 7.9745 69.7343, 8.9685 69.3903, 9.4335 68.5803 C 11.7435 64.5583, 13.8085 60.5423, 15.6295 56.5773 C 15.6295 56.5773, 15.6295 81.3233, 15.6295 81.3233 C 15.6295 81.6713, 15.9125 81.9533, 16.2595 81.9533 C 16.2595 81.9533, 25.0805 81.9533, 25.0805 81.9533 C 25.4285 81.9533, 25.7105 81.6713, 25.7105 81.3233 C 25.7105 81.3233, 25.7105 45.4323, 25.7105 45.4323 C 25.7105 45.4323, 34.9395 49.8743, 34.9395 49.8743 C 35.3575 50.0753, 35.8425 49.7713, 35.8425 49.3073 C 35.8425 49.3073, 35.8425 40.5303, 35.8425 40.5303 C 35.8425 39.8053, 35.4265 39.1433, 34.7725 38.8283 C 34.7725 38.8283, 25.7105 34.4653, 25.7105 34.4653 C 25.7105 34.4653, 25.7105 30.7883, 25.7105 30.7883 C 25.7105 30.7883, 36.5225 30.7883, 36.5225 30.7883 C 36.8715 30.7883, 37.1535 30.5063, 37.1535 30.1583 C 37.1535 30.1583, 37.1535 21.9683, 37.1535 21.9683 C 37.1535 21.6203, 36.8715 21.3383, 36.5225 21.3383" fill="rgb(255,255,255)"/>
<path transform="translate(744.8419 659.9661)" fill="rgb(255,255,255)" fill-rule="evenodd" d="M 26.6352 54.5210 C 26.6352 54.5210, 61.9412 54.5210, 61.9412 54.5210 C 57.2772 57.6780, 51.5332 60.5180, 44.6772 63.1120 C 37.1712 60.1780, 31.0802 57.1530, 26.6352 54.5210 M 87.7502 74.0850 C 76.7272 72.6030, 66.7202 70.3110, 57.9432 67.6740 C 65.2932 64.0030, 71.1672 59.9580, 75.6082 55.5130 C 75.6082 55.5130, 76.4362 54.6830, 76.4362 54.6830 C 76.7902 54.3290, 76.9892 53.8480, 76.9892 53.3470 C 76.9892 53.3470, 76.9892 46.3310, 76.9892 46.3310 C 76.9892 45.9830, 76.7072 45.7010, 76.3602 45.7010 C 76.3602 45.7010, 29.2402 45.7010, 29.2402 45.7010 C 30.2202 44.3030, 31.1272 42.8980, 31.9692 41.4830 C 31.9692 41.4830, 86.9452 41.4830, 86.9452 41.4830 C 87.2932 41.4830, 87.5752 41.2010, 87.5752 40.8520 C 87.5752 40.8520, 87.5752 33.2920, 87.5752 33.2920 C 87.5752 32.9440, 87.2932 32.6620, 86.9452 32.6620 C 86.9452 32.6620, 49.3012 32.6620, 49.3012 32.6620 C 49.3012 32.6620, 49.3012 26.9530, 49.3012 26.9530 C 49.3012 26.9530, 79.6562 26.9530, 79.6562 26.9530 C 80.0032 26.9530, 80.2852 26.6700, 80.2852 26.3230 C 80.2852 26.3230, 80.2852 19.3920, 80.2852 19.3920 C 80.2852 19.0440, 80.0032 18.7620, 79.6562 18.7620 C 79.6562 18.7620, 49.3012 18.7620, 49.3012 18.7620 C 49.3012 18.7620, 49.3012 13.0530, 49.3012 13.0530 C 49.3012 13.0530, 82.1222 13.0530, 82.1222 13.0530 C 82.4712 13.0530, 82.7522 12.7710, 82.7522 12.4230 C 82.7522 12.4230, 82.7522 4.8630, 82.7522 4.8630 C 82.7522 4.5150, 82.4712 4.2330, 82.1222 4.2330 C 82.1222 4.2330, 49.3012 4.2330, 49.3012 4.2330 C 49.3012 4.2330, 49.3012 0.6300, 49.3012 0.6300 C 49.3012 0.2830, 49.0192 0.0000, 48.6712 0.0000 C 48.6712 0.0000, 39.2202 0.0000, 39.2202 0.0000 C 38.8722 0.0000, 38.5902 0.2830, 38.5902 0.6300 C 38.5902 0.6300, 38.5902 4.2330, 38.5902 4.2330 C 38.5902 4.2330, 5.7692 4.2330, 5.7692 4.2330 C 5.4202 4.2330, 5.1382 4.5150, 5.1382 4.8630 C 5.1382 4.8630, 5.1382 12.4230, 5.1382 12.4230 C 5.1382 12.7710, 5.4202 13.0530, 5.7692 13.0530 C 5.7692 13.0530, 38.5902 13.0530, 38.5902 13.0530 C 38.5902 13.0530, 38.5902 18.7620, 38.5902 18.7620 C 38.5902 18.7620, 8.2362 18.7620, 8.2362 18.7620 C 7.8882 18.7620, 7.6062 19.0440, 7.6062 19.3920 C 7.6062 19.3920, 7.6062 26.3230, 7.6062 26.3230 C 7.6062 26.6700, 7.8882 26.9530, 8.2362 26.9530 C 8.2362 26.9530, 38.5902 26.9530, 38.5902 26.9530 C 38.5902 26.9530, 38.5902 32.6620, 38.5902 32.6620 C 38.5902 32.6620, 0.9462 32.6620, 0.9462 32.6620 C 0.5982 32.6620, 0.3162 32.9440, 0.3162 33.2920 C 0.3162 33.2920, 0.3162 40.8520, 0.3162 40.8520 C 0.3162 41.2010, 0.5982 41.4830, 0.9462 41.4830 C 0.9462 41.4830, 20.6162 41.4830, 20.6162 41.4830 C 16.5932 46.9070, 11.6492 52.2800, 4.8972 58.1490 C 4.6082 58.4010, 4.6042 58.8510, 4.8932 59.1020 C 4.8932 59.1020, 11.0452 64.4350, 11.0452 64.4350 C 11.2842 64.6430, 11.6442 64.6390, 11.8802 64.4290 C 13.7202 62.8050, 15.4572 61.2050, 17.0992 59.6200 C 20.8182 62.2500, 25.5632 64.9770, 30.9132 67.5840 C 22.1012 70.0660, 11.9882 72.3110, 0.5212 74.4020 C 0.0972 74.4790, -0.1298 74.9490, 0.0782 75.3260 C 0.0782 75.3260, 4.0712 82.5550, 4.0712 82.5550 C 4.4672 83.2720, 5.2842 83.6540, 6.0892 83.4990 C 21.0582 80.6130, 33.8102 77.2590, 44.4492 73.4000 C 56.7082 78.0350, 70.0652 81.5140, 83.3532 83.5350 C 84.2302 83.6680, 85.0792 83.1680, 85.3992 82.3420 C 85.3992 82.3420, 88.2572 74.9330, 88.2572 74.9330 C 88.4042 74.5540, 88.1542 74.1390, 87.7502 74.0850"/>
<path transform="translate(882.7914 665.6071)" d="M 0.5870 9.4699 C 6.9560 9.8519, 14.0980 10.7619, 22.1590 12.2189 C 22.5450 12.2879, 22.9040 11.9929, 22.9040 11.6009 C 22.9040 11.6009, 22.9040 3.2739, 22.9040 3.2739 C 22.9040 2.9679, 22.6810 2.7039, 22.3790 2.6519 C 14.2650 1.2259, 7.1490 0.3599, 0.6620 0.0009 C 0.3010 -0.0181, 0.0000 0.2719, 0.0000 0.6329 C 0.0000 0.6329, 0.0000 8.8439, 0.0000 8.8439 C 0.0000 9.1769, 0.2550 9.4489, 0.5870 9.4699" fill="rgb(255,255,255)"/>
<path transform="translate(882.7914 686.9029)" d="M 0.5870 9.4690 C 6.9560 9.8520, 14.0980 10.7620, 22.1590 12.2180 C 22.5450 12.2870, 22.9040 11.9920, 22.9040 11.6000 C 22.9040 11.6000, 22.9040 3.2740, 22.9040 3.2740 C 22.9040 2.9670, 22.6810 2.7040, 22.3790 2.6510 C 14.2650 1.2250, 7.1490 0.3600, 0.6620 0.0010 C 0.3010 -0.0190, 0.0000 0.2710, 0.0000 0.6330 C 0.0000 0.6330, 0.0000 8.8430, 0.0000 8.8430 C 0.0000 9.1760, 0.2550 9.4490, 0.5870 9.4690" fill="rgb(255,255,255)"/>
<path transform="translate(202.0063 286.0004)" d="M 77.8970 0.0000 C 77.8970 0.0000, 0.0000 111.2490, 0.0000 111.2490 C 0.0000 111.2490, 21.2410 111.2490, 21.2410 111.2490 C 21.2410 111.2490, 77.8970 30.3360, 77.8970 30.3360 C 77.8970 30.3360, 77.8970 111.2490, 77.8970 111.2490 C 77.8970 111.2490, 95.2970 111.2490, 95.2970 111.2490 C 95.2970 111.2490, 95.2970 5.4850, 95.2970 5.4850 C 95.2970 5.4850, 95.2970 0.0000, 95.2970 0.0000 C 95.2970 0.0000, 77.8970 0.0000, 77.8970 0.0000 Z" fill="rgb(255,255,255)"/>
<path transform="translate(141.7510 286.0004)" d="M 77.8970 0.0000 C 77.8970 0.0000, 0.0000 111.2490, 0.0000 111.2490 C 0.0000 111.2490, 21.2410 111.2490, 21.2410 111.2490 C 21.2410 111.2490, 77.8970 30.3360, 77.8970 30.3360 C 77.8970 30.3360, 77.8970 61.3740, 77.8970 61.3740 C 77.8970 61.3740, 95.2970 61.3740, 95.2970 61.3740 C 95.2970 61.3740, 95.2970 5.4850, 95.2970 5.4850 C 95.2970 5.4850, 95.2970 0.0000, 95.2970 0.0000 C 95.2970 0.0000, 77.8970 0.0000, 77.8970 0.0000 Z" fill="rgb(255,255,255)"/>
<path transform="translate(395.0575 286.0000)" fill="rgb(255,255,255)" fill-rule="evenodd" d="M 42.0000 95.5190 C 28.2150 95.5190, 17.0000 84.0800, 17.0000 70.0190 C 17.0000 55.9580, 28.2150 44.5190, 42.0000 44.5190 C 55.7850 44.5190, 67.0000 55.9580, 67.0000 70.0190 C 67.0000 84.0800, 55.7850 95.5190, 42.0000 95.5190 C 42.0000 95.5190, 42.0000 95.5190, 42.0000 95.5190 Z M 68.1330 0.0000 C 68.1330 0.0000, 68.1330 39.2060, 68.1330 39.2060 C 61.4200 31.9720, 52.0470 27.5190, 40.8660 27.5190 C 17.7070 27.5190, 0.0000 46.5840, 0.0000 70.0190 C 0.0000 93.4540, 17.7070 112.5190, 40.8660 112.5190 C 52.0470 112.5190, 61.4200 108.0670, 68.1330 100.8330 C 68.1330 100.8330, 68.1330 111.2490, 68.1330 111.2490 C 68.1330 111.2490, 85.1330 111.2490, 85.1330 111.2490 C 85.1330 111.2490, 85.1330 0.0000, 85.1330 0.0000 C 85.1330 0.0000, 68.1330 0.0000, 68.1330 0.0000 Z"/>
<path transform="translate(671.9476 313.5190)" fill="rgb(255,255,255)" fill-rule="evenodd" d="M 43.1340 68.0000 C 29.3490 68.0000, 18.1340 56.5610, 18.1340 42.5000 C 18.1340 28.4390, 29.3490 17.0000, 43.1340 17.0000 C 56.9190 17.0000, 68.1340 28.4390, 68.1340 42.5000 C 68.1340 56.5610, 56.9190 68.0000, 43.1340 68.0000 M 44.2680 0.0000 C 33.0870 0.0000, 23.7140 4.4530, 17.0000 11.6870 C 17.0000 11.6870, 17.0000 1.2700, 17.0000 1.2700 C 17.0000 1.2700, 0.0000 1.2700, 0.0000 1.2700 C 0.0000 1.2700, 0.0000 124.4470, 0.0000 124.4470 C 0.0000 124.4470, 17.0000 124.4470, 17.0000 124.4470 C 17.0000 124.4470, 17.0000 73.3130, 17.0000 73.3130 C 23.7140 80.5480, 33.0870 85.0000, 44.2680 85.0000 C 67.4260 85.0000, 85.1340 65.9350, 85.1340 42.5000 C 85.1340 19.0650, 67.4260 0.0000, 44.2680 0.0000"/>
<path transform="translate(487.1991 313.5190)" d="M 42.0000 68.0000 C 28.2150 68.0000, 17.0000 56.5610, 17.0000 42.5000 C 17.0000 28.4390, 28.2150 17.0000, 42.0000 17.0000 C 52.1780 17.0000, 60.9480 23.2390, 64.8450 32.1610 C 64.8450 32.1610, 80.2670 25.0190, 80.2670 25.0190 C 73.6660 10.2820, 59.0020 0.0000, 42.0000 0.0000 C 18.8410 0.0000, 0.0000 19.0650, 0.0000 42.5000 C 0.0000 65.9350, 18.8410 85.0000, 42.0000 85.0000 C 58.8480 85.0000, 73.4030 74.9040, 80.0880 60.3820 C 80.0880 60.3820, 64.6670 53.2390, 64.6670 53.2390 C 60.6860 61.9470, 52.0250 68.0000, 42.0000 68.0000" fill="rgb(255,255,255)"/>
<path transform="translate(942.2164 313.5190)" d="M 41.2880 0.0000 C 30.6840 0.0000, 22.4750 4.5040, 17.0000 11.7110 C 17.0000 11.7110, 17.0000 1.2700, 17.0000 1.2700 C 17.0000 1.2700, 0.0000 1.2700, 0.0000 1.2700 C 0.0000 1.2700, 0.0000 83.7570, 0.0000 83.7570 C 0.0000 83.7570, 17.0000 83.7570, 17.0000 83.7570 C 17.0000 83.7570, 17.0000 37.7500, 17.0000 37.7500 C 17.0000 26.3090, 27.0100 17.0000, 39.0200 17.0000 C 50.2250 17.0000, 59.3400 26.3090, 59.3400 37.7500 C 59.3400 37.7500, 59.3400 83.7570, 59.3400 83.7570 C 59.3400 83.7570, 76.3400 83.7570, 76.3400 83.7570 C 76.3400 83.7570, 76.3400 37.7500, 76.3400 37.7500 C 76.3400 16.9350, 61.8660 0.0000, 41.2880 0.0000" fill="rgb(255,255,255)"/>
<path transform="translate(304.1926 313.5190)" fill="rgb(255,255,255)" fill-rule="evenodd" d="M 18.4500 34.0000 C 21.9300 24.1070, 31.3000 17.0000, 42.2890 17.0000 C 53.2430 17.0000, 62.3160 24.0030, 65.6380 34.0000 C 65.6380 34.0000, 18.4500 34.0000, 18.4500 34.0000 Z M 83.4980 49.0000 C 83.8270 46.8620, 84.0000 44.6930, 84.0000 42.5000 C 84.0000 39.5810, 83.7210 36.7400, 83.1960 34.0000 C 79.4310 14.3760, 62.8130 0.0000, 42.2890 0.0000 C 18.9710 0.0000, 0.0000 19.0650, 0.0000 42.5000 C 0.0000 65.9350, 18.9710 85.0000, 42.2890 85.0000 C 57.4690 85.0000, 71.6390 76.9780, 79.2690 64.0620 C 79.2690 64.0620, 64.6320 55.4160, 64.6320 55.4160 C 60.0460 63.1780, 51.4850 68.0000, 42.2890 68.0000 C 30.5720 68.0000, 20.6940 59.9230, 17.8360 49.0000 C 17.8360 49.0000, 66.1580 49.0000, 66.1580 49.0000 C 66.1580 49.0000, 83.4980 49.0000, 83.4980 49.0000 Z"/>
<path transform="translate(760.7883 297.0675)" d="M 49.0550 32.7210 C 49.0550 32.7210, 49.0550 17.7210, 49.0550 17.7210 C 49.0550 17.7210, 25.5160 17.7210, 25.5160 17.7210 C 25.5160 17.7210, 25.5160 0.0000, 25.5160 0.0000 C 25.5160 0.0000, 8.5160 0.0000, 8.5160 0.0000 C 8.5160 0.0000, 8.5160 17.7210, 8.5160 17.7210 C 8.5160 17.7210, 0.0000 17.7210, 0.0000 17.7210 C 0.0000 17.7210, 0.0000 32.7210, 0.0000 32.7210 C 0.0000 32.7210, 8.5160 32.7210, 8.5160 32.7210 C 8.5160 32.7210, 8.5160 71.3670, 8.5160 71.3670 C 8.5160 82.4810, 12.0380 90.8070, 18.9870 96.1160 C 24.0840 100.0100, 30.5650 101.9520, 38.5750 101.9510 C 41.8120 101.9510, 45.3090 101.6220, 49.0550 100.9890 C 49.0550 100.9890, 49.0550 83.6860, 49.0550 83.6860 C 36.7210 86.2980, 31.4270 84.2270, 29.3080 82.6080 C 26.7910 80.6850, 25.5160 76.9030, 25.5160 71.3670 C 25.5160 71.3670, 25.5160 32.7210, 25.5160 32.7210 C 25.5160 32.7210, 49.0550 32.7210, 49.0550 32.7210 Z" fill="rgb(255,255,255)"/>
<path transform="translate(574.5529 313.5190)" fill="rgb(255,255,255)" fill-rule="evenodd" d="M 42.0000 68.0000 C 28.2150 68.0000, 17.0000 56.5610, 17.0000 42.5000 C 17.0000 28.4390, 28.2150 17.0000, 42.0000 17.0000 C 55.7850 17.0000, 67.0000 28.4390, 67.0000 42.5000 C 67.0000 56.5610, 55.7850 68.0000, 42.0000 68.0000 C 42.0000 68.0000, 42.0000 68.0000, 42.0000 68.0000 Z M 68.1340 1.7260 C 68.1340 1.7260, 68.1340 11.6870, 68.1340 11.6870 C 61.4200 4.4530, 52.0470 0.0000, 40.8660 0.0000 C 17.7080 0.0000, 0.0000 19.0650, 0.0000 42.5000 C 0.0000 65.9350, 17.7080 85.0000, 40.8660 85.0000 C 52.0470 85.0000, 61.4200 80.5480, 68.1340 73.3130 C 68.1340 73.3130, 68.1340 83.7300, 68.1340 83.7300 C 68.1340 83.7300, 85.1340 83.7300, 85.1340 83.7300 C 85.1340 83.7300, 85.1340 1.7260, 85.1340 1.7260 C 85.1340 1.7260, 68.1340 1.7260, 68.1340 1.7260 Z"/>
<path transform="translate(815.5562 313.5190)" fill="rgb(255,255,255)" fill-rule="evenodd" d="M 42.0000 68.0000 C 28.2150 68.0000, 17.0000 56.5610, 17.0000 42.5000 C 17.0000 28.4390, 28.2150 17.0000, 42.0000 17.0000 C 55.7850 17.0000, 67.0000 28.4390, 67.0000 42.5000 C 67.0000 56.5610, 55.7850 68.0000, 42.0000 68.0000 C 42.0000 68.0000, 42.0000 68.0000, 42.0000 68.0000 Z M 68.1340 1.7260 C 68.1340 1.7260, 68.1340 11.6870, 68.1340 11.6870 C 61.4210 4.4530, 52.0470 0.0000, 40.8660 0.0000 C 17.7080 0.0000, 0.0000 19.0650, 0.0000 42.5000 C 0.0000 65.9350, 17.7080 85.0000, 40.8660 85.0000 C 52.0470 85.0000, 61.4210 80.5480, 68.1340 73.3130 C 68.1340 73.3130, 68.1340 83.7300, 68.1340 83.7300 C 68.1340 83.7300, 85.1340 83.7300, 85.1340 83.7300 C 85.1340 83.7300, 85.1340 1.7260, 85.1340 1.7260 C 85.1340 1.7260, 68.1340 1.7260, 68.1340 1.7260 Z"/>
<path transform="translate(120.0000 405.7494)" d="M 0.0000 0.0000 C 0.0000 0.0000, 0.0000 5.5170, 0.0000 5.5170 C 0.0000 5.5170, 73.3060 25.1580, 73.3060 25.1580 C 73.3060 25.1580, 73.3060 0.0000, 73.3060 0.0000 C 73.3060 0.0000, 0.0000 0.0000, 0.0000 0.0000 Z" fill="rgb(115,68,227)"/>
<path transform="translate(202.0057 405.7494)" d="M 95.2980 0.0000 C 95.2980 0.0000, 0.0000 0.0000, 0.0000 0.0000 C 0.0000 0.0000, 0.0000 6.6820, 0.0000 6.6820 C 0.0000 6.6820, 95.2980 32.2170, 95.2980 32.2170 C 95.2980 32.2170, 95.2980 0.0000, 95.2980 0.0000 Z" fill="rgb(115,68,227)"/>
<path transform="translate(912.9514 297.0709)" d="M 1.9310 18.2020 C 1.9310 18.2020, 1.9310 17.1100, 1.9310 17.1100 C 1.9310 17.1100, 17.0000 8.4100, 17.0000 8.4100 C 17.0000 8.4100, 17.0000 0.0000, 17.0000 0.0000 C 17.0000 0.0000, 0.0000 0.0000, 0.0000 0.0000 C 0.0000 0.0000, 0.0000 18.2020, 0.0000 18.2020 C 0.0000 18.2020, 0.0030 18.2020, 0.0030 18.2020 C 0.0030 18.2020, 0.0030 100.2050, 0.0030 100.2050 C 0.0030 100.2050, 17.0030 100.2050, 17.0030 100.2050 C 17.0030 100.2050, 17.0030 18.2020, 17.0030 18.2020 C 17.0030 18.2020, 1.9310 18.2020, 1.9310 18.2020 Z" fill="rgb(255,255,255)"/>
</svg>