<svg xmlns="http://www.w3.org/2000/svg" width="1024" height="1024" viewBox="0 0 1024 1024">
  <rect width="1024" height="1024" fill="#ffffff" />
  <svg x="82" y="82" width="860" height="860" viewBox="128 266.5 190 190">
    <path transform="translate(202.0063 286.0004)" d="M 77.8970 0.0000 C 77.8970 0.0000, 0.0000 111.2490, 0.0000 111.2490 C 0.0000 111.2490, 21.2410 111.2490, 21.2410 111.2490 C 21.2410 111.2490, 77.8970 30.3360, 77.8970 30.3360 C 77.8970 30.3360, 77.8970 111.2490, 77.8970 111.2490 C 77.8970 111.2490, 95.2970 111.2490, 95.2970 111.2490 C 95.2970 111.2490, 95.2970 5.4850, 95.2970 5.4850 C 95.2970 5.4850, 95.2970 0.0000, 95.2970 0.0000 C 95.2970 0.0000, 77.8970 0.0000, 77.8970 0.0000 Z" fill="#000000" />
    <path transform="translate(141.7510 286.0004)" d="M 77.8970 0.0000 C 77.8970 0.0000, 0.0000 111.2490, 0.0000 111.2490 C 0.0000 111.2490, 21.2410 111.2490, 21.2410 111.2490 C 21.2410 111.2490, 77.8970 30.3360, 77.8970 30.3360 C 77.8970 30.3360, 77.8970 61.3740, 77.8970 61.3740 C 77.8970 61.3740, 95.2970 61.3740, 95.2970 61.3740 C 95.2970 61.3740, 95.2970 5.4850, 95.2970 5.4850 C 95.2970 5.4850, 95.2970 0.0000, 95.2970 0.0000 C 95.2970 0.0000, 77.8970 0.0000, 77.8970 0.0000 Z" fill="#000000" />
    <path transform="translate(120.0000 405.7494)" d="M 0.0000 0.0000 C 0.0000 0.0000, 0.0000 5.5170, 0.0000 5.5170 C 0.0000 5.5170, 73.3060 25.1580, 73.3060 25.1580 C 73.3060 25.1580, 73.3060 0.0000, 73.3060 0.0000 C 73.3060 0.0000, 0.0000 0.0000, 0.0000 0.0000 Z" fill="#7344E3" />
    <path transform="translate(202.0057 405.7494)" d="M 95.2980 0.0000 C 95.2980 0.0000, 0.0000 0.0000, 0.0000 0.0000 C 0.0000 0.0000, 0.0000 6.6820, 0.0000 6.6820 C 0.0000 6.6820, 95.2980 32.2170, 95.2980 32.2170 C 95.2980 32.2170, 95.2980 0.0000, 95.2980 0.0000 Z" fill="#7344E3" />
  </svg>
</svg>
